<svg width="24" height="25" viewBox="0 0 24 25" fill="none" xmlns="http://www.w3.org/2000/svg">
<g id="vuesax/linear/camera">
<g id="camera">
<path id="Vector" d="M6.76017 22.2441H17.2402C20.0002 22.2441 21.1002 20.5541 21.2302 18.4941L21.7502 10.2341C21.8902 8.07414 20.1702 6.24414 18.0002 6.24414C17.3902 6.24414 16.8302 5.89414 16.5502 5.35414L15.8302 3.90414C15.3702 2.99414 14.1702 2.24414 13.1502 2.24414H10.8602C9.83017 2.24414 8.63017 2.99414 8.17017 3.90414L7.45017 5.35414C7.17017 5.89414 6.61017 6.24414 6.00017 6.24414C3.83017 6.24414 2.11017 8.07414 2.25017 10.2341L2.77017 18.4941C2.89017 20.5541 4.00017 22.2441 6.76017 22.2441Z" stroke="#292D32" stroke-width="1.5" stroke-linecap="round" stroke-linejoin="round"/>
<path id="Vector_2" d="M10.5 8.24414H13.5" stroke="#292D32" stroke-width="1.5" stroke-linecap="round" stroke-linejoin="round"/>
<path id="Vector_3" d="M12 18.2441C13.79 18.2441 15.25 16.7841 15.25 14.9941C15.25 13.2041 13.79 11.7441 12 11.7441C10.21 11.7441 8.75 13.2041 8.75 14.9941C8.75 16.7841 10.21 18.2441 12 18.2441Z" stroke="#292D32" stroke-width="1.5" stroke-linecap="round" stroke-linejoin="round"/>
</g>
</g>
</svg>
