<svg width="54" height="64" viewBox="0 0 54 64" fill="none" xmlns="http://www.w3.org/2000/svg">
<g id="Group 319">
<path id="Vector" d="M35.9906 19.1905H35.9822C35.7458 19.1905 35.5516 19.0302 35.5473 18.8311C35.5431 18.6302 35.7331 18.4628 35.9738 18.4593H35.9822C36.2186 18.4593 36.415 18.6179 36.4192 18.817C36.4234 19.0179 36.2313 19.1853 35.9906 19.1905ZM42.6424 21.1941L42.3427 21.0795C41.5194 20.7659 40.6517 20.38 39.7356 20.3165C39.687 20.3148 39.5477 20.2372 39.5287 20.209C39.1044 19.5465 38.7349 18.7923 38.1861 18.1932C38.0763 18.0716 37.9771 17.987 37.8737 17.9289C37.7006 17.8284 37.4873 17.7809 37.2192 17.7809C37.0609 17.7809 36.8836 17.7967 36.6852 17.8302C36.1173 17.9254 35.6149 17.9694 35.1104 17.9694C34.9647 17.9694 34.819 17.9659 34.6692 17.9588C34.3187 17.9412 33.9641 17.906 33.6221 17.8707C33.2991 17.8373 32.9656 17.8038 32.6363 17.7862C32.5349 17.7809 32.4273 17.7773 32.3175 17.7773C31.4541 17.7773 30.369 17.9553 29.7505 18.4769C29.4909 18.6972 29.3283 18.9615 29.2713 19.2716C29.246 19.402 29.2396 19.543 29.2523 19.6892C29.265 19.8355 29.3368 19.9817 29.4592 20.1315C30.2593 21.0989 33.2168 22.1174 35.9864 22.8046C36.702 22.9808 37.3902 23.0707 38.1333 23.1112C38.2009 23.1147 38.4457 23.2011 38.4943 23.2381C39.0643 23.6487 39.7609 23.9288 40.4237 24.2178C41.7326 24.7887 43.0857 25.3773 43.5227 26.3605C43.8584 27.1129 43.795 27.8213 43.3327 28.468C41.4391 31.1288 33.1323 32.1067 29.5859 32.5244C29.2143 32.5684 28.8934 32.6072 28.6338 32.6389C31.2789 33.2468 33.0521 34.0715 33.9345 35.1058C38.2431 34.6741 42.6023 34.1102 45.7287 31.6081C46.5625 30.942 47.1515 30.1913 47.4787 29.379C48.8699 25.9341 47.0629 22.8733 42.6424 21.1941Z" fill="#224A46"/>
<g id="Group 318">
<path id="Vector_2" d="M26.5293 60.3304L26.6011 63.5321C26.6095 63.8423 26.9093 63.8423 26.9156 63.5321L26.9874 60.3304C26.9114 60.2599 26.8354 60.1894 26.7594 60.1172C26.6834 60.1894 26.6053 60.2582 26.5293 60.3304Z" fill="#224A46"/>
<path id="Vector_3" d="M26.168 44.2283L26.2102 46.1331C26.3664 46.2318 26.5501 46.3305 26.7591 46.4292C26.968 46.3305 27.1496 46.2318 27.3058 46.1331L27.348 44.2283C27.177 44.0732 26.9765 43.9164 26.7591 43.7578C26.5395 43.9164 26.3411 44.0732 26.168 44.2283Z" fill="#224A46"/>
<path id="Vector_4" d="M26.4524 38.6106C26.5495 38.6899 26.6509 38.771 26.7585 38.852C26.8641 38.771 26.9654 38.6899 27.0625 38.6106C27.2272 38.4749 27.3665 38.3534 27.4826 38.2424L27.5121 36.9754C27.2715 36.882 27.0182 36.801 26.7585 36.7305C26.4967 36.801 26.2455 36.882 26.0049 36.9754L26.0323 38.2424C26.1484 38.3534 26.2878 38.4749 26.4524 38.6106Z" fill="#224A46"/>
<path id="Vector_5" d="M26.7591 56.8544C26.8667 56.6852 26.9723 56.5178 27.0778 56.3487L27.2066 50.5849C27.0609 50.5443 26.9132 50.5056 26.7569 50.4668C26.6028 50.5056 26.4551 50.5443 26.3115 50.5849L26.4403 56.3504C26.5437 56.5178 26.6493 56.687 26.7591 56.8544Z" fill="#224A46"/>
<path id="Vector_6" d="M25.3761 36.5217C25.4225 36.5006 25.469 36.4812 25.5175 36.46C25.1038 36.3896 24.69 36.3296 24.2953 36.2733L24.1327 36.2504C22.9294 36.0759 21.6839 35.9543 20.3667 35.8239L20.3435 35.8222C20.221 35.8098 20.0986 35.7975 19.9761 35.7852C19.9149 35.8874 19.8622 35.9931 19.8199 36.1006C19.3977 37.1772 20.0754 38.4688 21.8338 39.9419C22.2434 40.2856 22.8323 40.6521 23.4931 41.0345C23.6007 41.0961 23.7126 41.1596 23.8245 41.223C23.9343 41.2847 24.0441 41.3463 24.1559 41.4098C24.2657 41.4715 24.3776 41.5349 24.4895 41.5966C24.4916 41.5966 24.4937 41.5983 24.4958 41.6001C25.0489 41.9085 25.6083 42.2203 26.1297 42.5358C26.345 42.6662 26.5561 42.7983 26.7588 42.9287C26.8622 42.9974 26.9657 43.0662 27.0649 43.1349C27.1662 43.2071 27.2654 43.2776 27.3604 43.3481C27.3626 43.3498 27.3668 43.3516 27.3689 43.3534C28.2365 44.0001 28.8149 44.6626 28.7643 45.341C28.7263 45.8556 28.3336 46.3225 27.5737 46.7542C27.9832 46.8899 28.4561 47.0185 28.9479 47.1507L28.9606 47.1542C29.7564 47.3692 30.6325 47.6053 31.4262 47.9348C31.9519 47.5014 32.2981 47.0203 32.4564 46.4917C32.7899 45.3868 32.3171 44.1023 31.0505 42.6697C30.8478 42.4424 30.4636 42.1516 29.9865 41.8256C29.8873 41.7569 29.7839 41.6882 29.6741 41.6177C29.5728 41.549 29.4672 41.4803 29.3596 41.4098C29.1442 41.2706 28.9226 41.1278 28.6967 40.9816C28.2808 40.7155 27.8544 40.4424 27.4407 40.1657C27.2063 40.0107 26.9783 39.8538 26.7588 39.6988C26.6575 39.6265 26.5604 39.556 26.4633 39.4856C26.3683 39.4133 26.2712 39.3411 26.1804 39.2706C26.1382 39.2371 26.0959 39.2054 26.0537 39.1719C25.2051 38.497 24.6182 37.8468 24.671 37.3006C24.7027 36.9799 24.9391 36.7191 25.3761 36.5217Z" fill="#224A46"/>
<path id="Vector_7" d="M27.5906 59.3323C27.5209 59.2354 27.4512 59.1402 27.3837 59.0451C27.314 58.9499 27.2465 58.853 27.1768 58.7579C27.1261 58.6856 27.0776 58.6134 27.0269 58.5429C26.9361 58.4142 26.8475 58.2856 26.7588 58.157C26.6849 58.0513 26.6111 57.9438 26.5393 57.8363C26.5161 57.8028 26.4928 57.7693 26.4717 57.7358C26.4211 57.6618 26.3704 57.5878 26.3197 57.5121C25.4606 56.2169 24.6943 54.89 24.1623 53.5191C23.7464 52.4443 23.7211 51.6795 24.0821 51.1103C24.3671 50.6592 24.8716 50.3755 25.5049 50.1535C24.9265 50.0055 24.3164 49.8293 23.7084 49.5914C23.0371 49.3271 22.4608 49.0328 21.9795 48.7051C21.2259 49.0786 20.639 49.5615 20.4195 50.2399C19.9508 51.6971 21.5826 53.5949 22.6614 54.8513C22.7944 55.0028 22.9189 55.1491 23.0329 55.283C23.89 56.3068 24.8336 57.2918 25.8131 58.2486C25.8975 58.3332 25.9862 58.4178 26.0749 58.5041C26.1614 58.5887 26.2501 58.6733 26.3387 58.7579C26.3915 58.8072 26.4443 58.8583 26.4971 58.9076C26.5836 58.9905 26.6702 59.075 26.7588 59.1561C26.8412 59.2354 26.9235 59.3147 27.0079 59.3922C27.01 59.394 27.0121 59.3957 27.0121 59.3975C27.0966 59.4768 27.1831 59.5578 27.2676 59.6371C27.7763 60.1094 28.2851 60.5781 28.7896 61.0415C28.8403 61.0873 28.8909 61.1349 28.9416 61.1807C28.7727 60.9499 28.6038 60.7191 28.435 60.49C28.1542 60.1059 27.8713 59.72 27.5906 59.3323Z" fill="#224A46"/>
<path id="Vector_8" d="M25.0809 60.4897C24.912 60.7188 24.7431 60.9496 24.5742 61.1805C24.6249 61.1347 24.6755 61.0871 24.7262 61.0413C25.2307 60.5778 25.7395 60.1091 26.2482 59.6369C26.1406 59.5347 26.0329 59.4342 25.9253 59.332C25.6466 59.7197 25.3616 60.1056 25.0809 60.4897Z" fill="#224A46"/>
<path id="Vector_9" d="M17.5337 18.4593H17.5422C17.7828 18.4628 17.9728 18.6302 17.9686 18.8311C17.9644 19.0302 17.7702 19.1905 17.5337 19.1905H17.5253C17.2846 19.1853 17.0925 19.0179 17.0967 18.817C17.1031 18.6179 17.2973 18.4593 17.5337 18.4593ZM33.5394 35.7878C33.476 35.6856 33.4043 35.5851 33.3219 35.4882C33.2375 35.3878 33.1425 35.2891 33.0391 35.1957C31.935 34.1878 29.8092 33.5199 27.599 33.0794C27.3182 33.023 27.0375 32.9702 26.7588 32.9208C26.4738 32.8715 26.191 32.8274 25.9102 32.7834C25.8785 32.7781 25.8448 32.7728 25.811 32.7675C25.5112 32.7235 25.2136 32.6829 24.9222 32.6442C24.9096 32.6424 24.8969 32.6407 24.8821 32.6389C24.6246 32.6072 24.3016 32.5684 23.9322 32.5244C20.3836 32.1067 12.0768 31.1288 10.1832 28.468C9.72301 27.8213 9.65757 27.1129 9.99322 26.3605C10.4302 25.3773 11.7834 24.7887 13.0922 24.2178C13.755 23.9288 14.4517 23.6487 15.0195 23.2381C15.0702 23.2011 15.3151 23.1147 15.3826 23.1112C16.1257 23.0707 16.8139 22.9808 17.5316 22.8046C20.2991 22.1174 23.2567 21.0989 24.0567 20.1315C24.1792 19.9817 24.2509 19.8355 24.2636 19.6892C24.2763 19.543 24.2699 19.402 24.2446 19.2716C24.1876 18.9615 24.0251 18.6972 23.7654 18.4769C23.1469 17.9553 22.0618 17.7773 21.2005 17.7773C21.0887 17.7773 20.981 17.7809 20.8797 17.7862C20.5504 17.8038 20.2168 17.8373 19.8938 17.8707C19.5518 17.906 19.1972 17.9412 18.8468 17.9588C18.6969 17.9659 18.5512 17.9694 18.4056 17.9694C17.901 17.9694 17.4007 17.9254 16.8308 17.8302C16.6323 17.7967 16.455 17.7809 16.2967 17.7809C16.0286 17.7809 15.8154 17.8284 15.6423 17.9289C15.5388 17.987 15.4396 18.0716 15.3298 18.1932C14.7831 18.7923 14.4116 19.5465 13.9872 20.209C13.9682 20.2372 13.8289 20.3148 13.7825 20.3165C12.8642 20.38 11.9966 20.7659 11.1733 21.0795L10.8735 21.1941C6.45306 22.8733 4.64605 25.9341 6.0372 29.379C6.3644 30.1913 6.95337 30.942 7.78722 31.6081C10.9115 34.1102 15.2728 34.6741 19.5814 35.1058C19.7271 35.1217 19.8727 35.1358 20.0163 35.1499C20.1556 35.164 20.2949 35.1781 20.4321 35.1904C20.4469 35.1922 20.4617 35.1939 20.4765 35.1957C21.7958 35.3261 23.0456 35.4477 24.2615 35.6239L24.424 35.6468C24.9244 35.719 25.4542 35.7948 25.9799 35.8953C26.2416 35.9446 26.5013 35.9992 26.7588 36.0626C26.9784 36.1173 27.1979 36.1789 27.409 36.2477C27.4491 36.26 27.4871 36.2741 27.5272 36.2864C27.6877 36.3411 27.846 36.3992 27.998 36.4626C28.0465 36.4838 28.093 36.5032 28.1394 36.5243C28.5764 36.7217 28.8128 36.9825 28.8445 37.3032C28.8973 37.8494 28.3104 38.4996 27.4618 39.1745C27.4196 39.2062 27.3773 39.2397 27.3351 39.2732C27.3752 39.3014 27.4174 39.3296 27.4576 39.3578C27.9959 39.7313 28.5806 40.1067 29.1569 40.4749L29.159 40.4785L29.1738 40.4873C29.4693 40.6776 29.7564 40.8608 30.0224 41.0371C30.6853 40.6547 31.2721 40.2882 31.6817 39.9446C33.4401 38.4714 34.1178 37.1798 33.6977 36.1032C33.6555 35.9957 33.6006 35.89 33.5394 35.7878Z" fill="#224A46"/>
<path id="Vector_10" d="M31.5366 48.7035C31.4183 48.6453 31.298 48.5907 31.1713 48.5361C31.0468 48.4832 30.9159 48.4321 30.7829 48.3828C30.1285 48.1378 29.4087 47.944 28.7247 47.759C28.2117 47.6215 27.7177 47.4876 27.2787 47.3414C27.095 47.2797 26.9198 47.2162 26.7593 47.1493C26.753 47.1475 26.7488 47.1458 26.7467 47.144C26.601 47.0841 26.4659 47.0224 26.3371 46.9607C26.3013 46.9414 26.2654 46.9237 26.2295 46.9061C26.1282 46.855 26.031 46.8039 25.9424 46.7528C25.1824 46.3211 24.7898 45.8541 24.7518 45.3396C24.7011 44.6612 25.2795 43.9986 26.1493 43.352C26.1514 43.3502 26.1535 43.3484 26.1556 43.3449C26.1535 43.3449 26.1514 43.3431 26.1493 43.3414C25.4949 42.922 24.7518 42.5079 24.0741 42.1291L24.0678 42.1255C23.8863 42.0251 23.7068 41.9247 23.5295 41.8242C23.0524 42.1502 22.6682 42.441 22.4656 42.6683C21.199 44.1009 20.7261 45.3854 21.0596 46.4903C21.218 47.0189 21.5642 47.4999 22.0898 47.9334C22.1848 48.0109 22.2861 48.0867 22.3938 48.1607C22.5015 48.2383 22.6133 48.3123 22.7337 48.3828C23.1073 48.6101 23.5401 48.818 24.0319 49.0118C24.7919 49.3096 25.5814 49.5087 26.2907 49.6832C26.3456 49.6955 26.4026 49.7096 26.4554 49.7219C26.5567 49.7484 26.6601 49.773 26.7593 49.7977C26.9177 49.8365 27.0718 49.8753 27.2217 49.9158C27.2871 49.9334 27.3546 49.951 27.418 49.9686C27.627 50.025 27.8254 50.0867 28.0112 50.1519C28.6445 50.3739 29.149 50.6576 29.434 51.1087C29.795 51.6779 29.7696 52.4426 29.3538 53.5175C28.8218 54.8884 28.0555 56.2153 27.1963 57.5104C27.361 57.7571 27.532 58.0021 27.7051 58.247C28.6825 57.2902 29.6261 56.3052 30.4853 55.2814C30.5972 55.1475 30.7217 55.0012 30.8547 54.8497C31.9334 53.5933 33.5652 51.6955 33.0966 50.2382C32.8791 49.5598 32.2902 49.077 31.5366 48.7035Z" fill="#224A46"/>
<g id="Clip path group">
<mask id="mask0_1120_4507" style="mask-type:luminance" maskUnits="userSpaceOnUse" x="0" y="0" width="54" height="33">
<g id="5b546f19fd">
<path id="Vector_11" d="M0 0.234375H53.4992V32.657H0L0 0.234375Z" fill="white"/>
</g>
</mask>
<g mask="url(#mask0_1120_4507)">
<g id="Group">
<path id="Vector_12" d="M48.9521 14.1409C51.6689 13.7127 53.495 13.2281 53.495 13.2281C35.0237 0.354198 29.1825 3.69161 30.3605 6.04049C31.3336 7.98056 28.8617 7.70744 27.9708 7.55414L28.013 4.57266C28.8975 4.19029 29.5013 3.42025 29.5013 2.53039C29.5013 1.26168 28.2748 0.234375 26.7591 0.234375C25.2434 0.234375 24.0148 1.26168 24.0148 2.53039C24.0148 3.42025 24.6185 4.19029 25.503 4.57266L25.5453 7.55061C24.6734 7.70391 22.1529 7.99466 23.1366 6.04049C24.3124 3.69161 18.4734 0.354198 0 13.2281C0 13.2281 1.82602 13.7127 4.54288 14.1409C6.02058 13.1964 7.36107 12.1056 8.51368 10.8757C7.59328 12.1056 6.49767 13.2369 5.26484 14.2501C6.32457 14.4052 7.49829 14.5444 8.73534 14.6413H8.73956C10.9688 13.4889 12.9616 12.0228 14.587 10.2924C13.331 11.9682 11.7477 13.4607 9.94072 14.7241C11.0384 14.7858 12.1678 14.8087 13.3014 14.777C16.1407 13.5365 18.6782 11.8184 20.6604 9.70566C19.2249 11.6228 17.3672 13.2968 15.2246 14.6713C17.7557 14.4492 20.2234 13.9083 22.2943 12.851C22.9572 11.7092 24.6164 11.4396 25.5959 11.0819L25.8957 32.1319C26.1912 32.1742 26.4783 32.22 26.7591 32.2676C27.0377 32.22 27.3248 32.1742 27.6204 32.1319L27.9201 11.0889C28.9018 11.4431 30.5441 11.7162 31.2028 12.851C33.2737 13.9083 35.7414 14.4492 38.2704 14.6713C36.1298 13.2968 34.2722 11.6228 32.8367 9.70566C34.8189 11.8184 37.3542 13.5365 40.1935 14.777C41.3292 14.8087 42.4565 14.7858 43.5542 14.7241C41.7472 13.4607 40.1661 11.9682 38.9079 10.2924C40.5334 12.0228 42.5283 13.4889 44.7575 14.6413H44.7596C45.9967 14.5444 47.1725 14.4052 48.2322 14.2501C46.9973 13.2369 45.9038 12.1056 44.9813 10.8757C46.136 12.1056 47.4744 13.1964 48.9521 14.1409Z" fill="#224A46"/>
</g>
</g>
</g>
</g>
</g>
</svg>
