<svg width="119" height="142" viewBox="0 0 119 142" fill="none" xmlns="http://www.w3.org/2000/svg">
<g id="Group 319">
<path id="Vector" d="M79.9918 42.1312H79.973C79.4475 42.1312 79.0159 41.7748 79.0065 41.3322C78.9971 40.8858 79.4194 40.5137 79.9542 40.5059H79.973C80.4985 40.5059 80.9348 40.8584 80.9442 41.3009C80.9536 41.7474 80.5267 42.1194 79.9918 42.1312ZM94.7759 46.5841L94.1096 46.3296C92.2798 45.6324 90.3514 44.7748 88.3152 44.6338C88.2072 44.6299 87.8976 44.4575 87.8554 44.3949C86.9123 42.9223 86.0912 41.2461 84.8713 39.9145C84.6273 39.6443 84.4068 39.4563 84.1769 39.327C83.7922 39.1038 83.3183 38.9981 82.7225 38.9981C82.3706 38.9981 81.9764 39.0333 81.5354 39.1077C80.2733 39.3192 79.1566 39.4171 78.0353 39.4171C77.7115 39.4171 77.3878 39.4093 77.0547 39.3936C76.2758 39.3545 75.4876 39.2761 74.7275 39.1978C74.0097 39.1234 73.2683 39.049 72.5364 39.0098C72.3112 38.9981 72.0719 38.9902 71.8279 38.9902C69.909 38.9902 67.4973 39.3858 66.1226 40.545C65.5455 41.0346 65.1842 41.6221 65.0576 42.3113C65.0013 42.6012 64.9872 42.9145 65.0153 43.2395C65.0435 43.5646 65.203 43.8897 65.4751 44.2225C67.2534 46.3726 73.8267 48.6363 79.9824 50.1637C81.5729 50.5554 83.1025 50.7551 84.754 50.8452C84.9042 50.853 85.4484 51.0449 85.5563 51.1272C86.8231 52.0397 88.3715 52.6624 89.8447 53.3047C92.7537 54.5736 95.7612 55.8817 96.7324 58.067C97.4784 59.7393 97.3376 61.3137 96.3101 62.751C92.1015 68.6648 73.639 70.8384 65.7567 71.7666C64.9309 71.8645 64.2177 71.9507 63.6406 72.0212C69.5195 73.3723 73.4607 75.2052 75.4219 77.5041C84.998 76.5446 94.6867 75.2914 101.635 69.7301C103.489 68.2497 104.798 66.5813 105.525 64.7758C108.617 57.1193 104.601 50.3165 94.7759 46.5841Z" fill="#118F80"/>
<g id="Group 318">
<path id="Vector_2" d="M58.9629 133.568L59.1224 140.684C59.1412 141.373 59.8074 141.373 59.8215 140.684L59.981 133.568C59.8121 133.411 59.6432 133.254 59.4743 133.094C59.3054 133.254 59.1318 133.407 58.9629 133.568Z" fill="#118F80"/>
<path id="Vector_3" d="M58.1602 97.7801L58.254 102.014C58.6012 102.233 59.0094 102.452 59.4739 102.672C59.9384 102.452 60.3419 102.233 60.6891 102.014L60.7829 97.7801C60.4029 97.4354 59.9571 97.0869 59.4739 96.7344C58.9859 97.0869 58.5449 97.4354 58.1602 97.7801Z" fill="#118F80"/>
<path id="Vector_4" d="M58.7935 85.294C59.0093 85.4703 59.2345 85.6504 59.4738 85.8306C59.7084 85.6504 59.9336 85.4703 60.1495 85.294C60.5154 84.9925 60.8251 84.7222 61.0831 84.4755L61.1488 81.6596C60.6139 81.452 60.0509 81.2719 59.4738 81.1152C58.892 81.2719 58.3337 81.452 57.7988 81.6596L57.8598 84.4755C58.1179 84.7222 58.4275 84.9925 58.7935 85.294Z" fill="#118F80"/>
<path id="Vector_5" d="M59.4732 125.843C59.7125 125.467 59.9471 125.095 60.1817 124.719L60.4679 111.909C60.1441 111.819 59.8157 111.733 59.4685 111.646C59.126 111.733 58.7976 111.819 58.4785 111.909L58.7647 124.723C58.9946 125.095 59.2292 125.471 59.4732 125.843Z" fill="#118F80"/>
<path id="Vector_6" d="M56.4007 80.6527C56.5039 80.6057 56.6072 80.5626 56.7151 80.5156C55.7955 80.359 54.8759 80.2258 53.9985 80.1005L53.6372 80.0496C50.9628 79.6618 48.1946 79.3916 45.2669 79.1018L45.2153 79.0979C44.9432 79.0705 44.671 79.043 44.3989 79.0156C44.2628 79.2428 44.1456 79.4778 44.0517 79.7167C43.1133 82.1096 44.6194 84.9803 48.5278 88.2544C49.438 89.0181 50.747 89.8327 52.2156 90.6826C52.4549 90.8197 52.7035 90.9606 52.9522 91.1016C53.1962 91.2387 53.4401 91.3758 53.6888 91.5168C53.9328 91.6538 54.1815 91.7948 54.4301 91.9319C54.4348 91.9319 54.4395 91.9358 54.4442 91.9397C55.6735 92.6251 56.9168 93.3183 58.0757 94.0194C58.5543 94.3092 59.0235 94.6029 59.4739 94.8927C59.7038 95.0454 59.9337 95.1982 60.1542 95.3509C60.3794 95.5115 60.5999 95.6682 60.8111 95.8248C60.8158 95.8287 60.8251 95.8326 60.8298 95.8366C62.7582 97.2739 64.0438 98.7464 63.9312 100.254C63.8467 101.398 62.974 102.436 61.2849 103.395C62.1952 103.697 63.2461 103.983 64.3394 104.276L64.3675 104.284C66.1363 104.762 68.0835 105.287 69.8476 106.019C71.0159 105.056 71.7853 103.987 72.1372 102.812C72.8786 100.356 71.8276 97.501 69.0125 94.317C68.562 93.8118 67.7081 93.1656 66.6478 92.441C66.4272 92.2883 66.1973 92.1356 65.9534 91.9789C65.7281 91.8262 65.4936 91.6734 65.2543 91.5168C64.7757 91.2074 64.2831 90.8901 63.781 90.5651C62.8567 89.9737 61.909 89.3667 60.9894 88.7518C60.4686 88.4072 59.9618 88.0586 59.4739 87.7139C59.2487 87.5534 59.0328 87.3967 58.817 87.2401C58.6059 87.0795 58.3901 86.9189 58.1883 86.7623C58.0945 86.6879 58.0006 86.6174 57.9068 86.5429C56.0207 85.043 54.7163 83.5978 54.8336 82.3837C54.904 81.6709 55.4295 81.0913 56.4007 80.6527Z" fill="#118F80"/>
<path id="Vector_7" d="M61.321 131.352C61.1662 131.137 61.0113 130.925 60.8612 130.714C60.7064 130.502 60.5562 130.287 60.4014 130.075C60.2888 129.915 60.1809 129.754 60.0683 129.598C59.8665 129.312 59.6695 129.026 59.4724 128.74C59.3082 128.505 59.144 128.266 58.9844 128.027C58.9328 127.953 58.8812 127.878 58.8343 127.804C58.7217 127.639 58.6091 127.475 58.4965 127.307C56.5869 124.428 54.8837 121.479 53.7014 118.432C52.7771 116.043 52.7208 114.343 53.5231 113.078C54.1565 112.076 55.2779 111.445 56.6854 110.952C55.3999 110.623 54.0439 110.231 52.6926 109.702C51.2006 109.115 49.9198 108.461 48.85 107.732C47.175 108.563 45.8707 109.636 45.3827 111.144C44.3411 114.382 47.9679 118.6 50.3655 121.393C50.6611 121.73 50.9379 122.055 51.1912 122.352C53.0961 124.628 55.1934 126.817 57.3704 128.944C57.5581 129.132 57.7552 129.32 57.9522 129.512C58.1446 129.7 58.3417 129.887 58.5387 130.075C58.656 130.185 58.7733 130.299 58.8906 130.408C59.083 130.592 59.2753 130.78 59.4724 130.961C59.6554 131.137 59.8384 131.313 60.026 131.485C60.0307 131.489 60.0354 131.493 60.0354 131.497C60.2231 131.673 60.4155 131.854 60.6031 132.03C61.7339 133.079 62.8646 134.121 63.986 135.151C64.0986 135.253 64.2112 135.359 64.3238 135.461C63.9484 134.947 63.5731 134.434 63.1977 133.925C62.5737 133.072 61.945 132.214 61.321 131.352Z" fill="#118F80"/>
<path id="Vector_8" d="M55.7432 133.923C55.3679 134.432 54.9925 134.945 54.6172 135.458C54.7298 135.356 54.8424 135.25 54.955 135.149C56.0764 134.119 57.2071 133.077 58.3378 132.027C58.0986 131.8 57.8593 131.577 57.62 131.35C57.0007 132.211 56.3673 133.069 55.7432 133.923Z" fill="#118F80"/>
<path id="Vector_9" d="M38.9709 40.5039H38.9897C39.5245 40.5118 39.9468 40.8838 39.9374 41.3303C39.928 41.7728 39.4964 42.1292 38.9709 42.1292H38.9521C38.4173 42.1175 37.9903 41.7454 37.9997 41.299C38.0138 40.8564 38.4454 40.5039 38.9709 40.5039ZM74.5446 79.0178C74.4039 78.7907 74.2444 78.5674 74.0614 78.352C73.8737 78.1288 73.6626 77.9095 73.4327 77.7019C70.9788 75.4617 66.2541 73.9774 61.3417 72.9983C60.7177 72.873 60.0937 72.7555 59.4744 72.6458C58.841 72.5362 58.2122 72.4383 57.5882 72.3403C57.5178 72.3286 57.4428 72.3168 57.3677 72.3051C56.7015 72.2072 56.0399 72.1171 55.3924 72.0309C55.3643 72.027 55.3361 72.0231 55.3033 72.0192C54.7309 71.9487 54.013 71.8625 53.1919 71.7646C45.3049 70.8364 26.8424 68.6628 22.6338 62.7491C21.611 61.3118 21.4655 59.7374 22.2115 58.0651C23.1828 55.8797 26.1902 54.5716 29.0992 53.3027C30.5724 52.6604 32.1208 52.0377 33.3829 51.1252C33.4955 51.043 34.0397 50.8511 34.1899 50.8432C35.8414 50.7531 37.371 50.5534 38.9662 50.1618C45.1172 48.6344 51.6905 46.3707 53.4688 44.2206C53.7409 43.8877 53.9004 43.5626 53.9286 43.2376C53.9567 42.9125 53.9426 42.5992 53.8863 42.3094C53.7597 41.6201 53.3984 41.0326 52.8213 40.5431C51.4466 39.3838 49.035 38.9883 47.1207 38.9883C46.872 38.9883 46.6327 38.9961 46.4075 39.0079C45.6756 39.047 44.9343 39.1214 44.2164 39.1959C43.4563 39.2742 42.6681 39.3525 41.8892 39.3917C41.5561 39.4073 41.2324 39.4152 40.9086 39.4152C39.7873 39.4152 38.6753 39.3173 37.4085 39.1058C36.9675 39.0314 36.5733 38.9961 36.2215 38.9961C35.6256 38.9961 35.1517 39.1019 34.767 39.3251C34.5371 39.4543 34.3166 39.6423 34.0726 39.9126C32.8574 41.2441 32.0316 42.9203 31.0886 44.3929C31.0463 44.4556 30.7367 44.6279 30.6334 44.6318C28.5925 44.7728 26.6641 45.6305 24.8343 46.3276L24.168 46.5822C14.3433 50.3145 10.327 57.1173 13.419 64.7739C14.1462 66.5793 15.4553 68.2477 17.3085 69.7281C24.2525 75.2894 33.9459 76.5426 43.522 77.5022C43.8457 77.5374 44.1695 77.5687 44.4885 77.6001C44.7982 77.6314 45.1079 77.6627 45.4128 77.6901C45.4457 77.6941 45.4785 77.698 45.5114 77.7019C48.4438 77.9917 51.2214 78.2619 53.9239 78.6536L54.2852 78.7045C55.3971 78.8651 56.5748 79.0335 57.7431 79.2567C58.3249 79.3664 58.902 79.4878 59.4744 79.6288C59.9623 79.7502 60.4503 79.8872 60.9195 80.04C61.0086 80.0674 61.0931 80.0987 61.1822 80.1261C61.5388 80.2476 61.8907 80.3768 62.2285 80.5178C62.3364 80.5648 62.4396 80.6079 62.5428 80.6549C63.5141 81.0935 64.0395 81.6731 64.1099 82.3859C64.2272 83.6 62.9229 85.0451 61.0368 86.5451C60.9429 86.6156 60.8491 86.69 60.7552 86.7644C60.8444 86.8271 60.9382 86.8898 61.0274 86.9524C62.2238 87.7827 63.5234 88.6169 64.8043 89.4354L64.809 89.4433L64.8419 89.4628C65.4987 89.8858 66.1368 90.2931 66.728 90.6848C68.2012 89.8349 69.5056 89.0203 70.4158 88.2566C74.3241 84.9825 75.8302 82.1118 74.8965 79.7188C74.8027 79.4799 74.6807 79.245 74.5446 79.0178Z" fill="#118F80"/>
<path id="Vector_10" d="M70.0902 107.723C69.8274 107.594 69.56 107.473 69.2785 107.351C69.0017 107.234 68.7108 107.12 68.4152 107.01C66.9607 106.466 65.3608 106.035 63.8406 105.624C62.7005 105.319 61.6026 105.021 60.6267 104.696C60.2185 104.559 59.8291 104.418 59.4725 104.269C59.4584 104.265 59.449 104.261 59.4443 104.257C59.1206 104.124 58.8203 103.987 58.5341 103.85C58.4543 103.807 58.3746 103.768 58.2948 103.728C58.0696 103.615 57.8538 103.501 57.6567 103.388C55.9677 102.428 55.095 101.39 55.0105 100.247C54.8979 98.739 56.1835 97.2664 58.1165 95.8291C58.1212 95.8252 58.1259 95.8213 58.1306 95.8134C58.1259 95.8134 58.1212 95.8095 58.1165 95.8056C56.662 94.8735 55.0105 93.9532 53.5044 93.1111L53.4903 93.1033C53.0868 92.8801 52.688 92.6568 52.2939 92.4336C51.2336 93.1581 50.3796 93.8043 49.9292 94.3095C47.1141 97.4936 46.0631 100.349 46.8044 102.804C47.1563 103.979 47.9258 105.048 49.0941 106.012C49.3052 106.184 49.5304 106.352 49.7697 106.517C50.009 106.689 50.2576 106.854 50.5251 107.01C51.3555 107.516 52.3174 107.978 53.4106 108.409C55.0997 109.07 56.8544 109.513 58.4309 109.901C58.5529 109.928 58.6796 109.959 58.7968 109.987C59.0221 110.046 59.252 110.1 59.4725 110.155C59.8244 110.241 60.1669 110.328 60.5 110.418C60.6454 110.457 60.7956 110.496 60.9363 110.535C61.4008 110.661 61.8419 110.798 62.2548 110.943C63.6623 111.436 64.7837 112.067 65.4171 113.069C66.2194 114.334 66.1631 116.034 65.2388 118.423C64.0564 121.47 62.3533 124.419 60.4437 127.297C60.8097 127.846 61.1897 128.39 61.5744 128.934C63.7468 126.808 65.844 124.619 67.7536 122.343C68.0023 122.045 68.2791 121.72 68.5747 121.384C70.9722 118.591 74.5991 114.373 73.5575 111.134C73.0742 109.627 71.7652 108.553 70.0902 107.723Z" fill="#118F80"/>
<g id="Clip path group">
<mask id="mask0_1056_3529" style="mask-type:luminance" maskUnits="userSpaceOnUse" x="0" y="0" width="119" height="73">
<g id="5b546f19fd">
<path id="Vector_11" d="M0 0L118.906 0V72.0618H0L0 0Z" fill="white"/>
</g>
</mask>
<g mask="url(#mask0_1056_3529)">
<g id="Group">
<path id="Vector_12" d="M108.8 30.9082C114.838 29.9565 118.897 28.8795 118.897 28.8795C77.8428 0.266315 64.8604 7.68398 67.4784 12.9045C69.6414 17.2165 64.1472 16.6094 62.1673 16.2687L62.2611 9.64218C64.227 8.79232 65.5689 7.08085 65.5689 5.10307C65.5689 2.28326 62.8429 0 59.4741 0C56.1054 0 53.3747 2.28326 53.3747 5.10307C53.3747 7.08085 54.7166 8.79232 56.6825 9.64218L56.7763 16.2609C54.8386 16.6016 49.2365 17.2478 51.4229 12.9045C54.0362 7.68398 41.0585 0.266315 0 28.8795C0 28.8795 4.05847 29.9565 10.0969 30.9082C13.3812 28.809 16.3605 26.3848 18.9223 23.6511C16.8766 26.3848 14.4416 28.8991 11.7015 31.151C14.0568 31.4957 16.6655 31.8051 19.4149 32.0205H19.4243C24.3789 29.4592 28.8081 26.2007 32.4208 22.3548C29.6291 26.0793 26.1102 29.3965 22.094 32.2046C24.5338 32.3416 27.0439 32.3925 29.5635 32.322C35.874 29.5649 41.5136 25.7464 45.9193 21.0506C42.7288 25.3117 38.6 29.0323 33.8378 32.0871C39.4633 31.5936 44.9481 30.3913 49.5508 28.0414C51.0241 25.5036 54.7119 24.9044 56.8889 24.1094L57.5551 70.8947C58.212 70.9887 58.8501 71.0905 59.4741 71.1962C60.0934 71.0905 60.7315 70.9887 61.3884 70.8947L62.0546 24.125C64.2364 24.9122 67.8866 25.5193 69.3505 28.0414C73.9532 30.3913 79.438 31.5936 85.0589 32.0871C80.3013 29.0323 76.1725 25.3117 72.982 21.0506C77.3877 25.7464 83.0226 29.5649 89.3332 32.322C91.8574 32.3925 94.3629 32.3416 96.8026 32.2046C92.7864 29.3965 89.2722 26.0793 86.4758 22.3548C90.0886 26.2007 94.5224 29.4592 99.477 32.0205H99.4817C102.231 31.8051 104.844 31.4957 107.2 31.151C104.455 28.8991 102.025 26.3848 99.9743 23.6511C102.541 26.3848 105.515 28.809 108.8 30.9082Z" fill="#118F80"/>
</g>
</g>
</g>
</g>
</g>
</svg>
