<svg width="44" height="44" viewBox="0 0 44 44" fill="none" xmlns="http://www.w3.org/2000/svg">
<g id="Medical Shield">
<path id="Vector" d="M37.7663 11.7453C37.7651 11.3913 37.5707 11.0489 37.2667 10.8653L30.5041 6.89361C30.1945 6.71182 29.8124 6.71226 29.4945 6.87893C24.9598 9.25626 19.4181 9.25512 14.8843 6.87553C14.5699 6.71052 14.1925 6.70802 13.8844 6.88445L7.09938 10.7697C6.79533 10.9532 6.60093 11.2956 6.59979 11.6496C6.56277 22.2689 12.3887 32.3159 21.5874 37.6074C21.9496 37.8156 22.4165 37.8156 22.7787 37.6074C31.9482 32.3326 37.7692 22.331 37.7663 11.7453Z" stroke="#22202A" stroke-width="2.2" stroke-miterlimit="10"/>
<path id="Vector_2" d="M19.9001 14.9239C19.778 15.2187 19.778 15.5924 19.778 16.3398V17.867C19.778 17.9033 19.778 17.9215 19.7667 17.9327C19.7554 17.944 19.7373 17.944 19.701 17.944H18.1738C17.4264 17.944 17.0527 17.944 16.7579 18.0661C16.3648 18.2289 16.0525 18.5412 15.8897 18.9343C15.7676 19.2291 15.7676 19.6028 15.7676 20.3503C15.7676 21.0977 15.7676 21.4714 15.8897 21.7662C16.0525 22.1593 16.3648 22.4716 16.7579 22.6344C17.0527 22.7565 17.4264 22.7565 18.1738 22.7565H19.701C19.7373 22.7565 19.7554 22.7565 19.7667 22.7678C19.778 22.7791 19.778 22.7972 19.778 22.8335V24.3607C19.778 25.1081 19.778 25.4818 19.9001 25.7766C20.0629 26.1697 20.3752 26.482 20.7683 26.6448C21.0631 26.7669 21.4368 26.7669 22.1842 26.7669C22.9317 26.7669 23.3054 26.7669 23.6002 26.6448C23.9933 26.482 24.3056 26.1697 24.4684 25.7766C24.5905 25.4818 24.5905 25.1081 24.5905 24.3607V22.8335C24.5905 22.7972 24.5905 22.7791 24.6018 22.7678C24.613 22.7565 24.6312 22.7565 24.6675 22.7565H26.1947C26.9421 22.7565 27.3158 22.7565 27.6106 22.6344C28.0037 22.4716 28.316 22.1593 28.4788 21.7662C28.6009 21.4714 28.6009 21.0977 28.6009 20.3503C28.6009 19.6028 28.6009 19.2291 28.4788 18.9343C28.316 18.5412 28.0037 18.2289 27.6106 18.0661C27.3158 17.944 26.9421 17.944 26.1947 17.944H24.6675C24.6312 17.944 24.613 17.944 24.6018 17.9327C24.5905 17.9215 24.5905 17.9033 24.5905 17.867V16.3398C24.5905 15.5924 24.5905 15.2187 24.4684 14.9239C24.3056 14.5308 23.9933 14.2185 23.6002 14.0557C23.3054 13.9336 22.9317 13.9336 22.1842 13.9336C21.4368 13.9336 21.0631 13.9336 20.7683 14.0557C20.3752 14.2185 20.0629 14.5308 19.9001 14.9239Z" stroke="#22202A" stroke-width="2.2"/>
</g>
</svg>
