<svg width="24" height="25" viewBox="0 0 24 25" fill="none" xmlns="http://www.w3.org/2000/svg">
<g id="vuesax/linear/microphone-2">
<g id="microphone-2">
<path id="Vector" d="M12 15.7441C14.21 15.7441 16 13.9541 16 11.7441V6.24414C16 4.03414 14.21 2.24414 12 2.24414C9.79 2.24414 8 4.03414 8 6.24414V11.7441C8 13.9541 9.79 15.7441 12 15.7441Z" stroke="#292D32" stroke-width="1.5" stroke-linecap="round" stroke-linejoin="round"/>
<path id="Vector_2" d="M4.3501 9.89453V11.5945C4.3501 15.8145 7.7801 19.2445 12.0001 19.2445C16.2201 19.2445 19.6501 15.8145 19.6501 11.5945V9.89453" stroke="#292D32" stroke-width="1.5" stroke-linecap="round" stroke-linejoin="round"/>
<path id="Vector_3" d="M10.6099 6.67328C11.5099 6.34328 12.4899 6.34328 13.3899 6.67328" stroke="#292D32" stroke-width="1.5" stroke-linecap="round" stroke-linejoin="round"/>
<path id="Vector_4" d="M11.2002 8.79445C11.7302 8.65445 12.2802 8.65445 12.8102 8.79445" stroke="#292D32" stroke-width="1.5" stroke-linecap="round" stroke-linejoin="round"/>
<path id="Vector_5" d="M12 19.2441V22.2441" stroke="#292D32" stroke-width="1.5" stroke-linecap="round" stroke-linejoin="round"/>
</g>
</g>
</svg>
